<?xml version="1.0" encoding="UTF-8"?> <svg xmlns="http://www.w3.org/2000/svg" width="451" height="951" viewBox="0 0 451 951" fill="none"> <path d="M301.715 14.8206C301.752 14.5945 301.677 14.3498 301.582 14.2183C301.3 13.8236 300.736 13.7312 300.342 14.015C272.939 33.5562 257.204 62.4409 260.995 85.9347C262.424 94.8767 266.251 101.193 269.626 106.739C273.472 112.942 276.47 117.962 274.098 123.959C271.464 130.842 264.611 132.388 256.687 134.108C249.364 135.694 241.178 137.603 235.669 144.363C225.928 156.466 232.973 173.527 241.094 193.203C249.725 214.007 259.396 237.652 250.109 259.699C245.362 270.996 238.01 276.292 230.358 282.004C221.543 288.454 212.352 295.075 207.278 311.194C202.521 326.088 244.578 368.965 246.046 378.377C247.303 386.246 248.105 391.951 244.541 394.617C237.977 399.347 224.278 388.974 209.863 378.019C192.156 364.551 173.715 370.614 161.219 377.621C153.582 381.826 153.5 392.499 157.802 410.021C162.105 427.543 169.284 442.657 174.256 456.824C175.674 460.888 176.797 463.814 178.74 467.5C179.24 468 180.013 469.03 180.388 468.859C180.763 468.688 179.91 466.376 179.74 466C177.91 462.333 177.269 460.336 175.964 456.291C166.059 428.428 146.588 387.762 162.105 379.276C173.701 372.817 192.33 367.017 208.909 379.604C224.452 391.44 237.944 401.663 245.559 396.178C250.023 392.962 249.07 386.768 247.793 378.315C246.419 369.034 204.438 326.402 209.008 311.942C213.99 296.388 222.805 289.938 231.47 283.696C239.085 278.21 246.868 272.404 251.802 260.673C261.313 237.967 251.454 214.059 242.765 192.897C234.908 173.729 228.014 157.157 237.044 145.865C242.14 139.502 249.707 137.84 257.048 136.141C265.103 134.327 272.783 132.683 275.791 124.933C278.406 118.163 275.031 112.617 271.222 106.188C267.941 100.774 264.208 94.5886 262.836 86.0043C259.178 63.1128 274.689 34.888 301.567 15.7251C301.528 15.2543 301.678 15.0467 301.715 14.8206Z" fill="black"></path> <path d="M89.1277 888.473C86.9499 897.299 84.7722 906.124 82.4798 914.835C44.3121 898.789 11.5315 903.832 2.5913 919.993C0.986657 922.858 -2.4519 930.882 2.82052 945.782C50.6161 944.98 98.5263 946.584 146.322 945.782C146.322 929.392 146.322 910.594 146.322 894.204C127.295 892.256 108.154 890.422 89.1277 888.473Z" fill="black"></path> <path d="M254.749 507.254C254.406 507.254 254.176 507.025 253.947 506.796C253.145 505.077 252.113 503.243 251.082 501.524C250.967 501.294 250.509 500.607 249.935 499.69C242.944 488.801 236.411 482.841 232.284 483.872C232.055 483.872 231.024 484.216 230.221 485.248C229.534 486.165 229.19 487.426 229.419 489.03L229.533 489.603C229.533 489.833 229.648 489.947 229.648 490.176C229.763 490.635 229.534 491.093 229.075 491.208C228.617 491.323 228.158 491.093 228.043 490.635C227.929 490.406 227.929 490.176 227.929 489.833L227.814 489.259C227.585 487.196 228.043 485.477 229.075 484.216C230.221 482.841 231.711 482.382 232.055 482.268C238.703 480.548 247.185 491.896 251.54 498.887C252.113 499.804 252.572 500.492 252.686 500.721C253.832 502.555 254.749 504.389 255.666 506.223C255.896 506.681 255.666 507.14 255.322 507.369C254.979 507.254 254.864 507.254 254.749 507.254Z" fill="black"></path> <path d="M255.667 506.567C246.613 500.836 237.558 495.22 228.618 489.489C228.388 489.259 228.159 489.145 228.044 488.916C228.274 488.916 228.388 488.916 228.618 488.916L250.739 499.116C251.083 499.69 251.541 500.377 251.885 500.95C253.031 503.014 254.292 504.847 255.667 506.567Z" fill="black"></path> <path d="M229.993 532.47C229.191 532.47 221.855 532.127 217.844 525.593C215.093 521.123 214.864 515.507 217.385 510.808C217.614 510.349 218.073 510.235 218.531 510.464C218.99 510.693 219.104 511.266 218.875 511.61C216.583 515.736 216.812 520.779 219.219 524.676C222.887 530.522 229.649 530.751 229.993 530.751C230.452 530.751 230.796 531.21 230.796 531.668C230.796 532.126 230.452 532.47 229.993 532.47Z" fill="black"></path> <path d="M228.617 544.39C228.502 544.39 228.388 544.39 228.388 544.39C227.7 544.161 221.969 542.098 220.365 536.253C219.333 532.699 220.365 529.719 221.052 528.229C221.282 527.771 221.74 527.656 222.199 527.771C222.657 528 222.772 528.459 222.657 528.917C222.084 530.178 221.282 532.814 222.084 535.794C223.459 540.837 228.502 542.557 228.961 542.786C229.419 542.9 229.649 543.473 229.534 543.817C229.305 544.161 228.961 544.39 228.617 544.39Z" fill="black"></path> <path d="M234.119 560.322C234.004 560.322 233.775 560.322 233.66 560.207C231.826 559.061 229.992 557.686 228.388 556.196C226.783 554.706 225.179 553.216 223.918 551.267C221.625 547.485 221.969 543.129 222.542 540.149C222.657 539.691 223.115 539.347 223.574 539.462C224.032 539.576 224.376 540.035 224.262 540.493C223.688 543.129 223.459 547.026 225.408 550.465C226.439 552.184 227.929 553.56 229.534 555.05C231.024 556.425 232.743 557.686 234.463 558.832C234.921 559.061 235.036 559.634 234.692 559.978C234.692 560.093 234.348 560.322 234.119 560.322Z" fill="black"></path> <path d="M282.029 570.179C281.571 570.179 281.112 569.836 281.112 569.262C281.112 560.552 279.737 552.07 276.986 544.047C276.298 541.983 275.382 539.92 274.579 537.857C274.35 537.399 274.579 536.94 275.038 536.711C275.496 536.482 275.955 536.711 276.184 537.169C277.101 539.233 277.903 541.296 278.705 543.473C281.571 551.611 282.946 560.322 282.946 569.262C282.946 569.836 282.488 570.179 282.029 570.179Z" fill="black"></path> <path d="M232.743 516.653C232.629 516.653 232.514 516.653 232.514 516.653C226.439 514.705 220.594 512.412 215.092 509.661C208.788 506.567 205.235 504.16 204.547 500.492C204.318 499.002 204.547 497.512 205.235 495.907C205.464 495.564 205.579 495.334 205.808 495.105C206.037 494.876 206.381 494.647 206.61 494.417C207.069 494.188 207.527 494.303 207.757 494.761C207.986 495.22 207.871 495.678 207.413 495.907C207.184 496.022 207.069 496.137 206.954 496.251C206.84 496.366 206.725 496.48 206.61 496.71C206.037 497.971 205.808 499.117 206.037 500.263C206.496 502.899 208.903 504.962 215.551 508.171C221.052 510.808 226.783 513.1 232.743 515.049C233.202 515.163 233.431 515.622 233.316 516.08C233.431 516.424 233.087 516.653 232.743 516.653Z" fill="black"></path> <path d="M404.899 577.4C404.441 577.4 404.097 577.056 404.097 576.598C403.524 570.409 402.836 564.105 402.263 557.915C402.263 557.457 402.607 556.998 403.065 556.998C403.524 556.884 403.982 557.342 403.982 557.801C404.555 563.99 405.243 570.294 405.816 576.483C405.816 576.942 405.472 577.286 404.899 577.4C404.899 577.4 405.014 577.4 404.899 577.4ZM365.929 577.4C365.471 577.4 365.127 577.056 365.012 576.598L364.898 572.128C355.499 572.128 347.476 568.46 341.974 561.927C336.472 555.394 334.524 546.683 336.243 537.399C337.962 528.229 343.235 519.633 351.029 513.1C353.092 511.38 355.155 509.89 357.333 508.744C372.806 499.804 391.03 501.638 400.658 513.214C405.701 519.289 407.879 527.312 406.733 535.909C406.733 536.138 406.618 536.367 406.618 536.596C406.504 537.055 406.045 537.399 405.587 537.284C405.128 537.169 404.784 536.711 404.899 536.253C404.899 536.023 405.014 535.909 405.014 535.679C406.045 527.542 404.097 519.977 399.283 514.361C390.228 503.472 372.921 501.638 358.135 510.234C356.072 511.38 354.009 512.871 352.06 514.475C344.61 520.665 339.567 528.917 337.848 537.743C336.243 546.453 338.192 554.706 343.235 560.895C348.507 567.199 356.416 570.638 365.585 570.409C366.044 570.409 366.388 570.638 366.388 571.096C366.388 571.211 366.388 571.211 366.388 571.326L366.502 576.598C366.731 576.942 366.388 577.4 365.929 577.4Z" fill="black"></path> <path d="M405.701 559.061C404.784 559.061 403.753 558.947 402.836 558.718C402.377 558.603 402.148 558.145 402.263 557.686C402.377 557.228 402.836 556.998 403.294 557.113C404.097 557.342 404.899 557.457 405.701 557.457C411.203 557.457 415.788 552.987 415.788 547.37C415.788 541.754 411.318 537.284 405.701 537.284C405.243 537.284 404.097 537.284 402.721 537.743C398.71 539.118 396.761 542.786 396.074 544.276C395.844 544.734 395.386 544.963 394.927 544.734C394.469 544.505 394.24 544.047 394.469 543.588C395.157 541.869 397.449 537.628 402.148 536.023C403.867 535.45 405.128 535.45 405.587 535.45C412.12 535.45 417.392 540.723 417.392 547.141C417.392 553.56 412.235 559.061 405.701 559.061Z" fill="black"></path> <path d="M406.045 536.368C405.587 536.368 405.128 536.368 404.441 536.368C404.212 536.368 403.524 536.482 402.492 536.826C402.034 536.941 400.658 537.514 399.168 538.66C397.22 540.15 395.959 541.869 395.271 543.13C392.291 535.336 389.197 527.542 386.217 519.748L357.677 509.432C373.265 500.721 391.03 503.243 399.971 513.788C407.306 522.27 406.275 533.502 406.045 536.368Z" fill="black"></path> <path d="M366.044 575.223C368.222 574.993 370.629 574.42 373.151 573.618C383.696 570.18 390.343 562.959 393.667 558.718C391.26 560.781 388.166 562.959 384.269 564.907C376.933 568.69 370.171 569.836 365.586 570.294C365.701 572.013 365.93 573.618 366.044 575.223Z" fill="black"></path> <path d="M301.057 950.825C291.2 950.825 268.62 948.991 247.301 934.549C226.097 920.107 212.802 897.872 202.83 860.506C197.099 838.729 192.629 812.825 187.7 780.732L187.356 778.211C186.325 771.219 185.179 763.998 184.147 756.548L183.918 755.287C182.428 745.545 181.167 735.802 179.906 725.372C179.448 721.246 178.989 717.693 178.646 714.483C178.646 714.025 178.989 713.566 179.448 713.566C179.906 713.566 180.365 713.91 180.365 714.369C180.709 717.463 181.052 721.131 181.511 725.143C182.772 735.458 184.032 745.201 185.408 754.943L185.637 756.204C186.783 763.654 187.815 770.875 188.846 777.867L189.19 780.389C194.119 812.481 198.589 838.385 204.32 860.048C214.177 897.069 227.243 918.961 248.104 933.174C272.976 950.137 299.796 949.335 304.84 949.106C327.075 947.616 347.707 937.529 366.16 918.961C380.258 904.749 388.052 890.422 389.542 887.785C389.771 887.327 390.23 887.212 390.688 887.441C391.147 887.671 391.261 888.129 391.032 888.588C387.937 894.548 358.71 947.272 304.954 950.825C304.381 950.71 302.891 950.825 301.057 950.825Z" fill="black"></path> <path d="M159.045 896.267C158.93 896.267 158.93 896.267 159.045 896.267L78.6978 888.244C78.4686 888.244 78.2394 888.129 78.1248 887.9C78.0101 887.671 77.8955 887.442 77.8955 887.212C78.8124 878.043 79.9586 868.873 81.1048 860.048C84.4287 834.259 88.7842 808.241 93.942 782.796C111.02 699.125 127.181 620.038 169.704 610.754C177.842 608.921 187.241 610.181 197.671 614.193C204.663 616.944 211.654 621.07 218.417 626.342C218.761 626.686 218.875 627.145 218.531 627.603C218.188 627.947 217.729 628.062 217.271 627.718C210.737 622.56 203.86 618.548 196.983 615.798C186.897 611.786 177.842 610.64 169.934 612.359C151.365 616.371 136.809 634.251 124.201 668.522C113.198 698.208 105.06 736.375 95.5467 783.025C90.3889 808.355 86.0334 834.259 82.7095 860.048C81.5633 868.644 80.5317 877.47 79.6148 886.295L158.357 894.433L161.681 880.908C163.4 873.917 165.12 866.925 166.953 859.933L187.47 777.638C187.585 777.294 187.928 776.95 188.272 776.95C188.731 776.95 189.189 777.294 189.189 777.752C189.189 777.867 189.189 777.867 189.189 777.982L168.673 860.277C166.953 867.269 165.234 874.261 163.4 881.252L159.847 895.465C159.733 895.923 159.389 896.267 159.045 896.267Z" fill="black"></path> <path d="M302.89 896.382C301.858 896.382 300.942 896.382 300.025 896.267C296.013 895.923 287.761 894.662 278.706 889.275C268.619 883.315 260.252 873.916 252.917 860.735C233.776 826.006 225.982 768.812 219.219 718.38L218.875 715.744C215.781 692.821 211.998 664.281 193.201 655.914C193.086 655.914 184.948 652.361 175.206 654.194C143.457 660.155 126.608 785.89 119.387 860.277C118.356 870.478 117.439 880.794 116.636 891.109C116.636 891.568 116.178 891.911 115.719 891.911C115.261 891.911 114.917 891.453 114.917 890.995C115.719 880.679 116.751 870.249 117.668 860.162C126.608 768.697 143.686 658.435 174.862 652.475C185.178 650.527 193.43 654.08 193.774 654.309C213.488 663.02 217.385 692.133 220.48 715.515L220.824 718.151C227.586 768.468 235.266 825.433 254.292 859.933C261.398 872.885 269.651 882.054 279.508 887.9C288.334 893.172 296.242 894.433 300.139 894.662C327.304 896.611 349.654 870.936 358.021 859.819C358.136 859.589 358.365 859.36 358.48 859.245L358.709 858.902C358.938 858.558 359.511 858.443 359.97 858.787C360.314 859.016 360.428 859.589 360.084 860.048L359.855 860.277C359.74 860.506 359.511 860.621 359.397 860.85C336.702 890.995 315.154 896.382 302.89 896.382Z" fill="black"></path> <path d="M316.53 893.975C316.186 893.975 315.956 893.745 315.727 893.516C309.882 881.596 306.902 870.363 306.672 860.277C306.443 847.669 310.684 838.844 314.237 833.686C318.134 828.069 322.146 825.548 322.375 825.433C322.834 825.204 323.292 825.319 323.521 825.662C323.75 826.006 323.636 826.579 323.292 826.809C323.177 826.923 307.933 836.895 308.392 860.162C308.621 870.019 311.601 881.023 317.217 892.714C317.446 893.172 317.217 893.631 316.873 893.86C316.759 893.86 316.644 893.975 316.53 893.975Z" fill="black"></path> <path d="M188.616 780.388C188.502 779.586 188.387 778.669 188.272 777.867C181.395 805.26 174.633 832.769 167.756 860.162C164.891 871.853 161.91 883.659 159.045 895.35C154.804 894.891 150.678 894.548 146.437 894.089L153.314 860.162L180.822 725.143L188.616 780.388Z" fill="black"></path> <path d="M405.113 859.904L405.113 859.904C399.485 875.254 395.14 885.932 393.629 889.493C388.289 884.597 382.923 879.726 377.559 874.857L377.552 874.851L377.536 874.837C371.957 869.773 366.38 864.711 360.832 859.62C360.699 859.488 360.554 859.36 360.438 859.257C360.392 859.217 360.351 859.18 360.317 859.149C360.172 859.017 360.083 858.924 360.021 858.829L359.97 858.754L359.903 858.692C353.833 853.137 347.762 847.611 341.693 842.086L341.677 842.071C335.603 836.541 329.529 831.011 323.455 825.453L323.451 825.45C320.474 822.759 317.525 820.068 314.574 817.375L314.571 817.372L314.57 817.37C311.672 814.727 308.774 812.081 305.848 809.436C303.058 799.304 300.241 789.144 297.424 778.985L297.422 778.98C294.586 768.752 291.75 758.524 288.942 748.326L288.937 748.306L288.93 748.286C283.538 732.225 276.995 714.659 268.955 697.66C261.26 681.122 252.181 665.03 241.943 651.226L241.941 651.224C234.909 641.81 227.197 633.501 218.801 626.744C221.972 613.833 225.143 600.915 228.202 587.772L228.203 587.77C228.717 585.54 229.26 583.31 229.805 581.074L229.806 581.072C230.35 578.838 230.895 576.6 231.412 574.36C231.593 573.58 231.775 572.797 231.956 572.012C232.873 568.055 233.8 564.056 234.796 560.124C242.262 561.143 250.158 562.485 258.38 564.152C266.723 565.931 274.63 567.819 281.997 569.813C281.465 573.584 280.771 578.598 279.92 584.74C277.967 598.848 275.19 618.91 271.659 643.543L271.659 643.544L271.636 643.711C270.047 654.892 268.96 662.533 268.687 667.593C268.55 670.131 268.613 672.087 268.947 673.54C269.285 675.008 269.928 676.07 271.026 676.638L271.033 676.642L271.04 676.645C272.877 677.545 274.938 676.663 276.991 675.029C279.095 673.356 281.482 670.668 284.138 667.295C287.141 663.48 290.555 658.698 294.349 653.382C297.254 649.313 300.383 644.93 303.722 640.429L303.722 640.428C318.162 620.946 336.746 599.086 359.249 588.857L359.688 588.658V588.175V577.004H413.205V588.862V589.342L413.64 589.543C418.063 591.585 421.68 593.848 424.267 595.872L424.267 595.872L424.277 595.88C438.928 606.924 446.111 626.149 448.396 649.794C451.364 682.104 445.056 722.38 435.734 760.741C426.416 799.086 414.105 835.448 405.113 859.904Z" stroke="black" stroke-width="1.5"></path> <path d="M305.182 810.877C304.838 810.877 304.38 810.648 304.38 810.189C301.4 796.779 296.242 775.689 288.333 751.619L287.416 748.869C287.302 748.525 287.416 748.066 287.875 747.837C303.692 739.699 318.592 729.842 332.346 718.495C348.049 705.543 362.147 690.757 374.411 674.367C374.64 674.023 375.214 673.909 375.557 674.138C375.901 674.367 376.016 674.94 375.787 675.284C363.523 691.789 349.31 706.689 333.493 719.756C319.853 730.988 305.067 740.731 289.365 748.869L290.053 750.932C297.961 775.116 303.234 796.206 306.214 809.731C306.328 810.189 305.984 810.648 305.526 810.762C305.297 810.877 305.182 810.877 305.182 810.877Z" fill="black"></path> <path d="M339.683 618.892C339.454 618.892 339.224 618.777 338.995 618.548C338.651 618.204 338.766 617.631 339.11 617.287L353.437 605.596C353.781 605.252 354.354 605.367 354.698 605.711C355.042 606.055 354.927 606.628 354.583 606.972L340.256 618.663C340.027 618.892 339.798 618.892 339.683 618.892Z" fill="black"></path> <path d="M375.673 607.201C375.329 607.201 374.985 606.972 374.87 606.628L369.369 592.76C369.139 592.301 369.369 591.843 369.827 591.613C370.286 591.384 370.744 591.613 370.973 592.072L376.475 605.941C376.704 606.399 376.475 606.858 376.017 607.087C375.902 607.201 375.787 607.201 375.673 607.201Z" fill="black"></path> <path d="M383.466 741.533C383.122 741.533 382.778 741.304 382.664 740.96L377.162 727.092C376.933 726.633 377.162 726.175 377.621 725.945C378.079 725.716 378.538 725.945 378.767 726.404L384.268 740.273C384.498 740.731 384.268 741.19 383.81 741.419C383.695 741.533 383.581 741.533 383.466 741.533Z" fill="black"></path> <path d="M400.545 837.927C400.201 837.927 399.857 837.698 399.742 837.354L394.241 823.485C394.012 823.027 394.241 822.568 394.699 822.339C395.158 822.11 395.616 822.339 395.845 822.797L401.347 836.666C401.576 837.125 401.347 837.583 400.889 837.812C400.774 837.927 400.659 837.927 400.545 837.927Z" fill="black"></path> <path d="M324.897 729.498C324.553 729.498 324.21 729.269 324.095 728.925L318.593 715.056C318.364 714.598 318.593 714.139 319.052 713.91C319.51 713.681 319.969 713.91 320.198 714.369L325.7 728.237C325.929 728.696 325.7 729.154 325.241 729.384C325.127 729.498 325.012 729.498 324.897 729.498Z" fill="black"></path> <path d="M428.053 720.673C427.709 720.673 427.365 720.444 427.251 720.1L421.749 706.231C421.52 705.773 421.749 705.314 422.208 705.085C422.666 704.856 423.125 705.085 423.354 705.544L428.855 719.412C429.085 719.871 428.855 720.329 428.397 720.558C428.282 720.673 428.168 720.673 428.053 720.673Z" fill="black"></path> <path d="M387.592 706.804C387.248 706.804 386.904 706.575 386.79 706.231L381.288 692.362C381.059 691.904 381.288 691.445 381.747 691.216C382.205 690.987 382.664 691.216 382.893 691.674L388.394 705.543C388.624 706.002 388.394 706.46 387.936 706.689C387.821 706.804 387.707 706.804 387.592 706.804Z" fill="black"></path> <path d="M384.842 782.108C384.498 782.108 384.154 781.878 384.04 781.535L378.538 767.666C378.309 767.207 378.538 766.749 378.997 766.52C379.455 766.29 379.914 766.52 380.143 766.978L385.644 780.847C385.874 781.305 385.645 781.764 385.186 781.993C385.071 782.108 384.957 782.108 384.842 782.108Z" fill="black"></path> <path d="M433.555 671.502C433.211 671.502 432.867 671.272 432.752 670.929L427.251 657.06C427.021 656.601 427.251 656.143 427.709 655.914C428.168 655.684 428.626 655.914 428.855 656.372L434.357 670.241C434.586 670.699 434.357 671.158 433.898 671.387C433.784 671.502 433.669 671.502 433.555 671.502Z" fill="black"></path> <path d="M384.842 631.5C384.613 631.5 384.384 631.385 384.269 631.271C383.925 630.927 383.925 630.354 384.269 630.01L395.846 617.402C396.189 617.058 396.762 617.058 397.106 617.402C397.45 617.746 397.45 618.319 397.106 618.663L385.53 631.271C385.301 631.385 385.071 631.5 384.842 631.5Z" fill="black"></path> <path d="M255.782 637.804C255.552 637.804 255.323 637.69 255.209 637.575C254.865 637.231 254.865 636.658 255.209 636.314L266.785 623.706C267.129 623.362 267.702 623.362 268.046 623.706C268.39 624.05 268.39 624.623 268.046 624.967L256.469 637.575C256.24 637.69 256.011 637.804 255.782 637.804Z" fill="black"></path> <path d="M265.524 701.875C265.295 701.875 265.066 701.761 264.951 701.646C264.607 701.302 264.607 700.729 264.951 700.385L272.516 692.133C272.86 691.789 273.433 691.789 273.777 692.133C274.121 692.477 274.121 693.05 273.777 693.394L266.212 701.646C265.983 701.761 265.754 701.875 265.524 701.875Z" fill="black"></path> <path d="M354.468 686.058C354.239 686.058 354.01 685.943 353.895 685.829C353.551 685.485 353.551 684.912 353.895 684.568L365.472 671.96C365.815 671.616 366.388 671.616 366.732 671.96C367.076 672.304 367.076 672.877 366.732 673.221L355.156 685.829C354.927 685.943 354.697 686.058 354.468 686.058Z" fill="black"></path> <path d="M333.837 823.485C333.608 823.485 333.379 823.37 333.264 823.256C332.92 822.912 332.92 822.339 333.264 821.995L344.841 809.387C345.185 809.043 345.758 809.043 346.101 809.387C346.445 809.731 346.445 810.304 346.101 810.648L334.525 823.256C334.296 823.37 334.067 823.485 333.837 823.485Z" fill="black"></path> <path d="M325.125 695.342C324.896 695.342 324.667 695.228 324.552 695.113C324.208 694.769 324.208 694.196 324.552 693.852L336.129 681.244C336.473 680.9 337.046 680.9 337.39 681.244C337.733 681.588 337.733 682.161 337.39 682.505L325.813 695.113C325.698 695.228 325.469 695.342 325.125 695.342Z" fill="black"></path> <path d="M293.721 747.837C293.492 747.837 293.263 747.722 293.148 747.608C292.804 747.264 292.804 746.691 293.148 746.347L304.724 733.739C305.068 733.395 305.641 733.395 305.985 733.739C306.329 734.083 306.329 734.656 305.985 735L294.409 747.608C294.18 747.837 293.95 747.837 293.721 747.837Z" fill="black"></path> <path d="M293.721 709.44C293.492 709.44 293.263 709.325 293.148 709.211C292.804 708.867 292.804 708.294 293.148 707.95L304.724 695.342C305.068 694.998 305.641 694.998 305.985 695.342C306.329 695.686 306.329 696.259 305.985 696.603L294.409 709.211C294.18 709.44 293.95 709.44 293.721 709.44Z" fill="black"></path> <path d="M238.131 656.143C237.902 656.143 237.673 656.028 237.558 655.914C237.214 655.57 237.214 654.997 237.558 654.653L241.914 649.954C242.258 649.61 242.831 649.61 243.174 649.954C243.518 650.298 243.518 650.871 243.174 651.214L238.819 655.914C238.59 656.028 238.361 656.143 238.131 656.143Z" fill="black"></path> <path d="M433.554 624.738C433.325 624.738 433.21 624.623 432.981 624.508L418.654 612.817C418.31 612.474 418.195 612.015 418.539 611.557C418.883 611.213 419.341 611.098 419.8 611.442L434.127 623.133C434.471 623.477 434.586 623.935 434.242 624.394C434.013 624.623 433.783 624.738 433.554 624.738Z" fill="black"></path> <path d="M354.812 645.369C354.697 645.369 354.582 645.369 354.468 645.254C354.009 645.025 353.78 644.567 354.009 644.108L359.511 630.239C359.74 629.781 360.199 629.552 360.657 629.781C361.116 630.01 361.345 630.469 361.116 630.927L355.614 644.796C355.499 645.14 355.156 645.369 354.812 645.369Z" fill="black"></path> <path d="M384.842 874.834C384.727 874.834 384.613 874.834 384.498 874.719C384.04 874.49 383.81 874.031 384.04 873.573L389.541 859.704C389.771 859.246 390.229 859.016 390.687 859.246C391.146 859.475 391.375 859.933 391.146 860.392L385.644 874.261C385.53 874.719 385.186 874.834 384.842 874.834Z" fill="black"></path> <path d="M299.452 680.327C299.337 680.327 299.223 680.327 299.108 680.213C298.649 679.983 298.42 679.525 298.65 679.067L304.151 665.198C304.38 664.739 304.839 664.51 305.297 664.739C305.756 664.969 305.985 665.427 305.756 665.886L300.254 679.754C300.139 680.213 299.796 680.327 299.452 680.327Z" fill="black"></path> <path d="M332.461 662.562C332.347 662.562 332.232 662.562 332.117 662.447C331.659 662.218 331.43 661.759 331.659 661.301L337.16 647.432C337.39 646.974 337.848 646.744 338.307 646.974C338.765 647.203 338.994 647.661 338.765 648.12L333.263 661.989C333.149 662.333 332.805 662.562 332.461 662.562Z" fill="black"></path> <path d="M243.518 607.201C243.404 607.201 243.289 607.201 243.174 607.087C242.716 606.858 242.487 606.399 242.716 605.941L248.218 592.072C248.447 591.613 248.905 591.384 249.364 591.613C249.822 591.843 250.051 592.301 249.822 592.76L244.321 606.743C244.206 607.087 243.862 607.201 243.518 607.201Z" fill="black"></path> <path d="M320.427 638.836C319.969 638.836 319.625 638.492 319.625 638.034L317.906 625.082C317.791 624.623 318.135 624.165 318.593 624.165C319.052 624.05 319.51 624.394 319.51 624.852L321.229 637.804C321.344 638.263 321 638.721 320.542 638.721C320.427 638.836 320.427 638.836 320.427 638.836Z" fill="black"></path> <path d="M397.793 669.324C397.564 669.324 397.449 669.209 397.22 669.095L382.893 657.404C382.549 657.06 382.434 656.601 382.778 656.143C383.122 655.799 383.58 655.685 384.039 656.028L398.366 667.719C398.71 668.063 398.824 668.522 398.481 668.98C398.366 669.209 398.022 669.324 397.793 669.324Z" fill="black"></path> <path d="M395.043 796.779C394.585 796.779 394.241 796.435 394.126 795.976C394.126 795.518 394.47 795.06 394.929 795.06L413.382 794.601C413.841 794.601 414.185 794.945 414.299 795.403C414.299 795.862 413.955 796.32 413.497 796.32L395.043 796.779Z" fill="black"></path> <path d="M424.271 775.46C423.812 775.46 423.469 775.116 423.354 774.657C423.354 774.199 423.698 773.74 424.156 773.74L432.753 773.511C433.211 773.511 433.67 773.855 433.67 774.314C433.67 774.772 433.326 775.23 432.867 775.23L424.271 775.46Z" fill="black"></path> <path d="M361.231 796.779C361.002 796.779 360.887 796.664 360.658 796.549L346.331 784.858C345.987 784.515 345.872 784.056 346.216 783.598C346.56 783.254 347.018 783.139 347.477 783.483L361.804 795.174C362.148 795.518 362.262 795.976 361.918 796.435C361.689 796.664 361.46 796.779 361.231 796.779Z" fill="black"></path> <path d="M357.563 759.758C357.104 759.758 356.761 759.414 356.646 758.955V740.387C356.646 739.929 356.99 739.47 357.448 739.47C357.907 739.47 358.251 739.814 358.365 740.273V758.841C358.48 759.414 358.021 759.758 357.563 759.758Z" fill="black"></path> <path d="M407.306 771.907C406.848 771.907 406.504 771.563 406.504 771.219L403.524 752.995C403.409 752.536 403.753 752.078 404.211 751.963C404.67 751.849 405.128 752.192 405.243 752.651L408.223 770.875C408.338 771.334 407.994 771.792 407.535 771.907C407.421 771.907 407.306 771.907 407.306 771.907Z" fill="black"></path> <path d="M362.033 719.527C361.804 719.527 361.689 719.412 361.46 719.297L347.133 707.606C346.789 707.263 346.674 706.804 347.018 706.346C347.362 706.002 347.821 705.887 348.279 706.231L362.606 717.922C362.95 718.266 363.065 718.724 362.721 719.183C362.492 719.527 362.262 719.527 362.033 719.527Z" fill="black"></path> <path d="M236.641 580.151C236.412 580.151 236.298 580.037 236.068 579.922L229.994 574.994C229.65 574.65 229.535 574.191 229.879 573.733C230.223 573.389 230.681 573.274 231.14 573.618L237.215 578.547C237.558 578.891 237.673 579.349 237.329 579.808C237.1 580.037 236.871 580.151 236.641 580.151Z" fill="black"></path> <path d="M230.796 624.738C230.566 624.738 230.452 624.623 230.222 624.508L220.021 616.256C219.678 615.912 219.563 615.454 219.907 614.995C220.251 614.651 220.709 614.537 221.168 614.88L231.369 623.133C231.712 623.477 231.827 623.935 231.483 624.394C231.369 624.623 231.139 624.738 230.796 624.738Z" fill="black"></path> <path d="M368.452 858.099C368.222 858.099 368.108 857.985 367.878 857.87L353.551 846.179C353.207 845.835 353.093 845.377 353.437 844.918C353.78 844.575 354.239 844.46 354.697 844.804L369.025 856.495C369.368 856.839 369.483 857.297 369.139 857.756C368.91 857.985 368.681 858.099 368.452 858.099Z" fill="black"></path> <path d="M319.625 802.051C319.396 802.051 319.281 801.937 319.052 801.822L304.725 790.131C304.381 789.787 304.266 789.329 304.61 788.87C304.954 788.526 305.412 788.412 305.871 788.755L320.198 800.446C320.542 800.79 320.656 801.249 320.313 801.707C320.198 802.051 319.854 802.051 319.625 802.051Z" fill="black"></path> <path d="M447.079 700.042C446.85 700.042 446.735 699.927 446.506 699.812L432.981 688.809C432.637 688.465 432.522 688.007 432.866 687.548C433.21 687.204 433.669 687.09 434.127 687.434L447.652 698.437C447.996 698.781 448.11 699.239 447.767 699.698C447.652 699.927 447.423 700.042 447.079 700.042Z" fill="black"></path> <path d="M449.143 650.87C448.913 650.87 448.799 650.756 448.569 650.641L438.254 642.732C437.91 642.389 437.795 641.93 438.139 641.472C438.483 641.013 438.942 641.013 439.4 641.357L449.716 649.266C450.06 649.609 450.174 650.068 449.83 650.526C449.601 650.756 449.372 650.87 449.143 650.87Z" fill="black"></path> <path d="M278.362 597.688C278.133 597.688 278.018 597.574 277.789 597.459L265.295 587.373C264.952 587.029 264.837 586.57 265.181 586.112C265.525 585.768 265.983 585.653 266.442 585.997L278.935 596.084C279.279 596.427 279.393 596.886 279.049 597.344C278.935 597.574 278.591 597.688 278.362 597.688Z" fill="black"></path> <path d="M429.886 753.454C429.542 753.454 429.199 753.224 429.084 752.881L421.978 735.803C421.748 735.344 421.978 734.886 422.436 734.656C422.895 734.427 423.353 734.656 423.582 735.115L430.689 752.193C430.918 752.651 430.689 753.11 430.23 753.339C430.115 753.454 430.001 753.454 429.886 753.454Z" fill="black"></path> <path d="M409.828 648.693C409.714 648.693 409.599 648.693 409.484 648.578C409.026 648.349 408.797 647.891 409.026 647.432L414.528 633.564C414.757 633.105 415.215 632.876 415.674 633.105C416.132 633.334 416.362 633.793 416.132 634.251L410.631 648.12C410.516 648.578 410.172 648.693 409.828 648.693Z" fill="black"></path> <path d="M328.22 769.729C328.106 769.729 327.991 769.729 327.877 769.615C327.418 769.385 327.189 768.927 327.418 768.468L332.92 754.6C333.149 754.141 333.607 753.912 334.066 754.141C334.524 754.37 334.754 754.829 334.524 755.287L329.023 769.156C328.908 769.5 328.564 769.729 328.22 769.729Z" fill="black"></path> <path d="M405.817 692.935C405.702 692.935 405.587 692.935 405.473 692.821C405.014 692.591 404.785 692.133 405.014 691.674L410.516 677.806C410.745 677.347 411.204 677.118 411.662 677.347C412.121 677.576 412.35 678.035 412.121 678.493L406.619 692.362C406.39 692.821 406.16 692.935 405.817 692.935Z" fill="black"></path> <path d="M372.921 824.173C372.806 824.173 372.692 824.173 372.577 824.058C372.119 823.829 371.889 823.37 372.119 822.912L377.62 809.043C377.85 808.585 378.308 808.355 378.767 808.585C379.225 808.814 379.454 809.272 379.225 809.731L373.723 823.6C373.609 823.943 373.265 824.173 372.921 824.173Z" fill="black"></path> <path d="M397.22 736.375C397.106 736.375 396.991 736.375 396.876 736.261C396.418 736.031 396.189 735.573 396.418 735.114L401.92 721.246C402.149 720.787 402.607 720.558 403.066 720.787C403.524 721.016 403.754 721.475 403.524 721.933L398.023 735.802C397.908 736.261 397.564 736.375 397.22 736.375Z" fill="black"></path> <path d="M405.817 592.759C405.588 592.759 405.359 592.644 405.129 592.53L396.304 582.902C395.96 582.558 395.96 581.985 396.304 581.641C396.648 581.297 397.221 581.297 397.565 581.641L406.39 591.269C406.734 591.613 406.734 592.186 406.39 592.53C406.161 592.644 405.932 592.759 405.817 592.759Z" fill="black"></path> <path d="M280.769 543.473C280.54 543.473 280.425 543.359 280.196 543.244C279.279 542.557 278.362 541.754 277.559 540.952C276.643 540.035 275.611 539.118 274.694 538.201C274.579 538.086 274.579 538.086 274.579 537.972C273.433 535.221 272.058 532.47 270.339 529.949C265.525 522.613 260.023 518.487 246.727 510.464C217.156 492.698 211.31 493.271 208.101 495.334C207.757 495.563 207.299 495.907 206.955 496.136C206.726 496.366 206.267 496.48 205.923 496.251C205.236 495.793 204.319 495.219 203.287 494.532C202.714 494.188 201.453 493.271 199.849 492.239C198.129 490.979 196.41 489.718 194.691 488.342C194.347 487.999 194.232 487.54 194.576 487.082C194.92 486.738 195.379 486.623 195.837 486.967C197.556 488.342 199.276 489.603 200.995 490.749C202.6 491.895 203.746 492.698 204.319 493.042C205.121 493.5 205.809 493.959 206.382 494.417C206.611 494.188 206.955 493.959 207.184 493.844C211.081 491.322 217.156 490.635 247.53 508.974C261.055 517.111 266.671 521.352 271.714 528.917C273.433 531.439 274.809 534.189 275.955 537.055C276.757 537.972 277.674 538.774 278.591 539.576C279.164 540.15 279.737 540.608 280.425 541.181L282.603 537.399C284.322 534.304 286.156 531.095 287.875 528L281.457 523.988C255.553 507.827 229.649 491.781 203.631 475.62C203.173 475.391 203.058 474.817 203.402 474.474C203.631 474.015 204.204 473.901 204.548 474.244C230.452 490.405 256.47 506.452 282.373 522.613L289.48 526.969C289.824 527.198 290.053 527.771 289.824 528.115C287.875 531.439 286.041 534.877 284.093 538.201L281.457 542.9C281.342 543.13 281.113 543.244 280.883 543.359C280.883 543.473 280.883 543.473 280.769 543.473Z" fill="black"></path> <path d="M194.805 488.342C189.418 481.236 184.146 474.015 178.759 466.909C187.355 469.316 196.066 471.723 204.662 474.244C205.006 476.078 205.465 478.027 205.809 479.86C203.745 480.204 201.682 480.548 199.505 481.007C200.536 483.184 201.568 485.248 202.599 487.425C199.963 487.654 197.327 487.998 194.805 488.342Z" fill="black"></path> <path d="M272.287 532.47C272.172 532.47 271.943 532.47 271.828 532.355C271.37 532.126 271.255 531.553 271.484 531.209L277.215 521.237C277.444 520.779 278.017 520.664 278.361 520.893C278.82 521.123 278.934 521.696 278.705 522.04L272.974 532.011C272.974 532.355 272.63 532.47 272.287 532.47Z" fill="black"></path> <path d="M194.74 488.5L205.24 496C205.907 495.166 207.94 492.9 210.74 492.5C214.24 492 220.974 494.535 232.24 500.5C249.24 509.5 257.69 514.486 265.74 522C273.24 529 276.24 538 277.74 541.5L281.24 544L289.74 528.5L290.24 527.5L289.74 527L204.24 474L179.74 466L178.74 467.5L194.74 488.5Z" fill="white"></path> </svg> 